<?xml version="1.0" standalone="no"?>
<!DOCTYPE svg PUBLIC "-//W3C//DTD SVG 20010904//EN"
 "http://www.w3.org/TR/2001/REC-SVG-20010904/DTD/svg10.dtd">
<svg version="1.0" xmlns="http://www.w3.org/2000/svg"
 width="486.000000pt" height="486.000000pt" viewBox="0 0 486.000000 486.000000"
 preserveAspectRatio="xMidYMid meet">
<metadata>
Created by potrace 1.11, written by Peter Selinger 2001-2013
</metadata>
<g transform="translate(0.000000,486.000000) scale(0.100000,-0.100000)"
fill="#000000" stroke="none">
<path d="M2665 3696 c-36 -15 -85 -70 -86 -94 0 -9 -2 -28 -5 -41 -6 -34 30
-102 69 -128 92 -63 227 12 227 125 0 45 -37 107 -79 130 -44 25 -82 27 -126
8z"/>
<path d="M1204 3180 c-71 -22 -138 -82 -231 -206 l-22 -29 0 105 -1 106 -102
-1 -103 0 -3 -732 -2 -733 110 0 110 0 0 83 c1 45 1 285 1 533 l0 451 61 92
c106 162 190 193 246 92 40 -72 45 -139 46 -706 l1 -540 108 -3 c97 -2 107 -1
108 15 0 10 1 248 1 528 1 565 -5 517 71 630 80 118 148 158 201 118 27 -19
59 -85 71 -143 4 -19 9 -282 11 -585 2 -302 3 -553 3 -557 1 -5 50 -8 110 -8
l109 0 -2 583 c-3 638 -6 684 -64 791 -66 121 -201 160 -320 90 -55 -33 -135
-113 -169 -172 l-26 -44 -20 53 c-23 64 -75 131 -127 165 -43 28 -125 39 -176
24z"/>
<path d="M3595 3185 c-5 -2 -44 -11 -85 -20 -259 -59 -446 -248 -515 -520 -28
-108 -32 -307 -8 -420 73 -350 341 -563 716 -570 159 -3 350 33 423 80 20 13
21 16 9 67 -7 29 -16 66 -20 82 -7 31 2 32 -125 -3 -207 -56 -390 -46 -523 29
-114 64 -218 213 -251 358 -18 81 -18 244 0 322 49 211 171 343 364 394 38 10
90 13 165 11 125 -4 145 -7 256 -40 57 -16 82 -20 85 -12 22 60 52 163 48 168
-4 7 -95 38 -134 46 -113 22 -200 31 -290 31 -58 -1 -109 -2 -115 -3z"/>
<path d="M2177 3145 c-2 -5 -4 -48 -3 -95 l1 -84 210 -2 c116 -1 213 -2 216
-3 7 -1 4 -1459 -4 -1486 -3 -11 -8 -33 -13 -50 -10 -43 -41 -83 -77 -102 -53
-27 -210 -22 -334 10 l-52 14 -26 -76 c-14 -42 -25 -83 -25 -92 0 -27 182 -63
320 -64 166 0 239 20 314 86 31 27 106 149 92 149 -3 0 0 15 5 33 20 67 23
185 24 967 l0 805 -322 0 c-212 0 -324 -3 -326 -10z"/>
</g>
</svg>
